<svg width="192" height="192" fill="none" xmlns="http://www.w3.org/2000/svg"><rect width="192" height="192" rx="96" fill="#1E2A47"/><g clip-path="url(#a)"><path d="m142.869 128.991-23.924-18.938c-2.475-2.071-5.12-3.023-7.256-2.932 5.857-6.373 9.071-14.487 9.058-22.874 0-19.467-16.959-35.25-37.875-35.25S44.997 64.78 44.997 84.247s16.959 35.25 37.875 35.25c9.38 0 17.962-3.175 24.578-8.431-.098 1.989.925 4.451 3.15 6.754l20.348 22.266c3.485 3.601 9.175 3.907 12.647.676 3.472-3.232 3.147-8.528-.726-11.771ZM82.875 107.75c-6.697 0-13.119-2.476-17.854-6.883-4.736-4.407-7.396-10.384-7.396-16.617 0-6.233 2.66-12.21 7.396-16.617 4.735-4.407 11.157-6.883 17.854-6.883 6.697 0 13.12 2.476 17.855 6.883 4.735 4.407 7.395 10.384 7.395 16.617 0 6.233-2.66 12.21-7.395 16.617-4.736 4.407-11.158 6.883-17.855 6.883Z" fill="#fff"/></g><defs><clipPath id="a"><path fill="#fff" transform="translate(45 49)" d="M0 0h101v94H0z"/></clipPath></defs></svg>