<svg width="42" height="50" xmlns="http://www.w3.org/2000/svg"><path d="M20.161.03c1.828-.286 1.245 1.417.453 2.237-.92.964-2.406 1.391-2.942 3.527 2.361 0 4.4.048 6.44-.013 2.619-.078 3.063.875 1.619 2.994-.712 1.05-1.117 2.32-1.898 3.303-1.514 1.894-1.48 3.189 1.003 4.072.625.222 1.43.778 1.589 1.342.687 2.435 2.247 4.318 3.88 6.148l.615.684c1.947 2.167 3.856 4.346 4.388 7.373.164.922-.008 1.403 1.264 1.295 1.834-.173 4.003-.195 4.514 2.144.492 2.23-1.1 3.65-2.803 4.828-.333.228-.552.608-.883 1.003.314 1.37 2.372.075 2.386 1.43.011 1.128-1.197 1.653-2.033 1.911-4.264 1.325-8.756 1.775-13.128 1.686-4.028-.088-7.189 2.198-10.922 2.74-1.061.158-2.034.68-3.761-.015 4-1.452 4.616-6.625 10.402-6.38-1.791-.745-2.541-1.083-3.316-1.367-2.33-.841-2.642-2.478-.903-4.372.98-1.064 1.658-2.206-.564-2.667-1.175-.242-.95-.735-.643-1.288l.098-.176c.211-.386.396-.79.131-1.152-.372-.511.85-.656 1.556-.567 2.089.27 5.041.63 4.23-2.422-.522-1.956-.827-5.872-4.689-5.364-3.655.48-4.802-.425-2.516-3.742-.392-.175-.91-.032-1.433.155l-.196.072c-1.207.449-2.352.95-1.918-1.89.025-.176-.32-.595-.39-.576-.841.267-1.741 2.33-2.463.45-.711-1.85 2.439-.955 2.514-3.197-.148-.478-2.834.292-1.878-1.028 1.908-2.633.586-3.801-1.028-5.031l-.244-.185-.123-.094-.246-.188-.123-.096c-.339-.264.003-.725.042-1.153 0-.008-.006-.022-.006-.03a.594.594 0 00-.086-.384c-.089-.06-.164-.091-.256-.153a.136.136 0 00.04-.05c.022-.008.047-.013.069-.022.097.07.1.145.153.225l.202.124c2.338 1.376 3.666.533 4.603-1.565.133-.312.261-.648.386-1.006C12.437.398 14.94.225 17.425.181l.604-.01.4-.007A13.248 13.248 0 0020.16.03zm-13 20.025l.147.003c2.725.15 2.856 2.692 3.934 4.045-.092 1.833-1.2 2.87-2.392 2.875-2.456.03-4.93-.395-7.372-.792-.561-.092-1.2-.68-1.14-1.528.123-1.555 4.865-4.725 6.97-4.6zM3.667 7.642c.216.341.33.636-.092.783-.08-.294-.017-.544.092-.783zM8.192.878c.75 2.536-1.542 3.378-2.261 4.964-.398.1-.798.208-1.195.31-.353.529-.844.984-1.067 1.49a5.448 5.448 0 00-.137-.202l-.098-.138a17.758 17.758 0 01-.05-.07l-.096-.14c-.389-.581-.59-1.149.95-1.3-.185-2.82 1.329-4.214 3.954-4.914z" fill="#0E8784" fill-rule="nonzero"/></svg>