<svg width="49" height="44" xmlns="http://www.w3.org/2000/svg"><path d="M40.967 39.325c.273 0 .468.253.401.517l-.848 3.36a.99.99 0 01-1.517.58 18.332 18.332 0 01-4.067-3.79.413.413 0 01.324-.667zM36.746.215a.317.317 0 01.57-.04c.51.889 1.42 2.776 1.42 4.979l.499-.362a.315.315 0 01.437.062l1.09 1.427a.34.34 0 01.061.222c-.072.77-.272 5.015 3.435 6.716a.312.312 0 01.154.15l4.525 9.1c.02.047.03.093.03.145v3.831c0 .584-.246 1.138-.683 1.526-1.774 1.582-6.412 5.971-6.695 9.011a.314.314 0 01-.313.285H33.3a.303.303 0 01-.149-.036c-.514-.28-3.229-3.857-3.78-7.327a.315.315 0 00-.544-.16l-1.784 1.985a.863.863 0 01-.648.29.558.558 0 01-.55-.465c-.206-1.21-1.121-4.375-4.957-4.375-2.057 0-5.26.797-8.232 1.696 0 0-3.29 1.034-5.722 4.343a.442.442 0 01-.36.181H4.569a.454.454 0 01-.447-.522c.483-3.092-.869-6.261-2.324-9.177-.591-1.184-1.193-2.327-1.697-3.408a1.112 1.112 0 01-.072-.718l.92-3.857c.088-.373.366-.673.73-.786l.295-.095.342-.114c2.43-.826 7.673-2.944 8.187-5.929a.31.31 0 01.092-.17l5.363-5.196a.319.319 0 01.468.03c.504.637 1.908 2.053 3.995 1.355l-.648-.656a.317.317 0 01.006-.455l2.452-2.327a.302.302 0 01.216-.088h7.476a.32.32 0 01.247.522L27.769 4.74a.321.321 0 00.072.47l2.695 1.77.515.337 1.674 1.099a1.483 1.483 0 002.19-.677c.396-.967.767-2.472.772-4.71 0-.037.005-.078.02-.114z" fill="#0E8784" fill-rule="nonzero"/></svg>